<svg id="Layer_1" data-name="Layer 1" xmlns="http://www.w3.org/2000/svg" viewBox="0 0 290.53 595.28"><defs><style>.cls-1{fill:#727889;fill-rule:evenodd;}</style></defs><path class="cls-1" d="M71.83,300.16V580.9a7.31,7.31,0,0,0,7.31,7.31H183.39a7.32,7.32,0,0,0,7.32-7.31V295.59h75.58a7.31,7.31,0,0,0,7.28-6.7l7.27-86a7.32,7.32,0,0,0-7.29-7.93H190.71V134a25.88,25.88,0,0,1,25.88-25.88h58.25a7.31,7.31,0,0,0,7.31-7.31v-86a7.31,7.31,0,0,0-7.31-7.31H176.41A104.58,104.58,0,0,0,71.83,112.13V195H19.7a7.32,7.32,0,0,0-7.31,7.32v86a7.31,7.31,0,0,0,7.31,7.31H71.83Z"/></svg>