<svg id="Layer_1" data-name="Layer 1" xmlns="http://www.w3.org/2000/svg" viewBox="0 0 371.79 371.79"><defs><style>.cls-1{fill:#727889;}</style></defs><path class="cls-1" d="M281.84,72a21.26,21.26,0,1,0,21.25,21.26A21.26,21.26,0,0,0,281.84,72Zm-94.5,27.26a89.28,89.28,0,1,0,89.29,89.28A89.38,89.38,0,0,0,187.34,99.26Zm0,146.47a57.19,57.19,0,1,1,57.2-57.19A57.25,57.25,0,0,1,187.34,245.73ZM367.5,114.34A108.91,108.91,0,0,0,258.59,5.44H114.86A108.9,108.9,0,0,0,6,114.34V258.08A108.9,108.9,0,0,0,114.86,367H258.59A108.91,108.91,0,0,0,367.5,258.08ZM333.39,258.08a74.79,74.79,0,0,1-74.8,74.79H114.86a74.79,74.79,0,0,1-74.79-74.79V114.34a74.79,74.79,0,0,1,74.79-74.79H258.59a74.79,74.79,0,0,1,74.8,74.79Z"/></svg>