<svg id="Layer_1" data-name="Layer 1" xmlns="http://www.w3.org/2000/svg" viewBox="0 0 549.58 452.67"><defs><style>.cls-1{fill:#727889;}</style></defs><path class="cls-1" d="M555.79,60c-17.46,7.9-36.68,12.7-55.52,15.86,9-1.5,22.13-17.7,27.4-24.24,8-10,14.73-21.38,18.49-33.67.48-1,.84-2.16-.12-2.89a3.12,3.12,0,0,0-2.94.25,283.71,283.71,0,0,1-65.94,25.23,4.39,4.39,0,0,1-4.54-1.21,54.71,54.71,0,0,0-5.77-5.89,116.73,116.73,0,0,0-31.94-19.57,111.22,111.22,0,0,0-49-7.89,117,117,0,0,0-46.49,13.13,119.65,119.65,0,0,0-37.49,30.62,115.19,115.19,0,0,0-22.4,44.85C275.68,110.38,276,126,278.36,142c.35,2.64.12,3-2.28,2.64C185.51,131.12,110.43,98.7,49.49,29.26c-2.65-3-4.08-3-6.25.23-26.67,40-13.73,104.2,19.59,135.76,4.44,4.21,9,8.41,13.92,12.25-1.8.37-24-2-43.72-12.25-2.65-1.67-4-.71-4.21,2.29a68.93,68.93,0,0,0,.71,13c5.12,40.52,33.19,78,71.62,92.62a67.85,67.85,0,0,0,14.53,4.45c-8.76,1.92-17.78,3.29-42.89,1.32-3.13-.6-4.32,1-3.13,4,18.88,51.43,59.61,66.73,90.11,75.45,4.08.71,8.17.71,12.27,1.67-.25.37-.5.37-.73.73-10.12,15.42-45.2,26.9-61.53,32.61-29.71,10.38-62.06,15.06-93.46,12-5-.74-6.08-.68-7.44,0-1.38.85-.18,2.05,1.44,3.36,6.37,4.21,12.85,7.94,19.46,11.54a308.73,308.73,0,0,0,62.47,25c112.27,31,238.74,8.22,323-75.54,66.2-65.77,89.4-156.47,89.4-247.29,0-3.55,4.2-5.52,6.7-7.39C528.6,102,542.29,86.54,555.14,69.25a13.28,13.28,0,0,0,2.71-8.76V60C557.85,58.56,558,59,555.79,60Z" transform="translate(-8.27 -5.75)"/></svg>